<?xml version="1.0" encoding="UTF-8"?><svg id="_图层_2" xmlns="http://www.w3.org/2000/svg" viewBox="0 0 53.3 53.3"><defs><style>.cls-1{fill:#e5c86e;}.cls-2{fill:#d2dfdd;}.cls-3{fill:#2a3c38;}.cls-4{fill:#557771;}</style></defs><g id="_图层_1-2"><g><rect class="cls-3" width="53.3" height="53.3" rx="9.98" ry="9.98"/><g><path class="cls-4" d="M19.64,33.66c-4.57-4.57-5.52-11.38-2.87-16.9-1.47,.71-2.85,1.65-4.07,2.87-5.79,5.79-5.79,15.18,0,20.97,5.79,5.79,15.18,5.79,20.97,0,1.22-1.22,2.16-2.6,2.87-4.07-5.52,2.65-12.32,1.7-16.9-2.87Z"/><path class="cls-4" d="M19.64,12.7c-1.22,1.22-2.16,2.6-2.87,4.07,5.52-2.65,12.32-1.7,16.9,2.87s5.52,11.38,2.87,16.9c1.47-.71,2.85-1.65,4.07-2.87,5.79-5.79,5.79-15.18,0-20.97s-15.18-5.79-20.97,0Z"/><g><path class="cls-2" d="M30.1,37.5c-3.82,0-7.41-1.49-10.11-4.19-4.25-4.25-5.38-10.72-2.85-16.17,1.88-.88,3.97-1.34,6.06-1.34,3.82,0,7.41,1.49,10.11,4.18,4.25,4.25,5.38,10.72,2.85,16.17-1.88,.88-3.97,1.34-6.06,1.34h0Z"/><path class="cls-1" d="M23.2,16.31c3.69,0,7.15,1.43,9.75,4.04,4.05,4.05,5.17,10.22,2.82,15.43-1.77,.8-3.73,1.21-5.68,1.21-3.69,0-7.15-1.43-9.75-4.04-4.05-4.05-5.17-10.22-2.82-15.43,1.77-.8,3.73-1.21,5.68-1.21m0-1c-2.2,0-4.41,.49-6.43,1.46-2.65,5.52-1.7,12.32,2.87,16.9,2.89,2.89,6.67,4.33,10.46,4.33,2.2,0,4.41-.49,6.43-1.46,2.65-5.52,1.7-12.32-2.87-16.9-2.89-2.89-6.67-4.33-10.46-4.33h0Z"/></g></g></g></g></svg>